PathFileType	4	(X/Y/Z)	SUBJ26_1_walk_RCNL2025.trc
DataRate	CameraRate	NumFrames	NumMarkers	Units	OrigDataRate	OrigDataStartFrame	OrigNumFrames
100	100	13	25	mm	100	1	385
Frame#	Time	R_Shoulder			L_Shoulder			C7			J_Notch			R_Elbow			L_Elbow			R_Wrist			L_Wrist			R_Asis			L_Asis			Sacral			Thoracic			Sternum			R_Thigh_Lateral			R_Knee_Lateral			R_Shank_Lateral			R_Ankle_Lateral			R_Heel			R_Toe			L_Thigh_Lateral			L_Knee_Lateral			L_Shank_Lateral			L_Ankle_Lateral			L_Heel			L_Toe		
		X1	Y1	Z1	X2	Y2	Z2	X3	Y3	Z3	X4	Y4	Z4	X5	Y5	Z5	X6	Y6	Z6	X7	Y7	Z7	X8	Y8	Z8	X9	Y9	Z9	X10	Y10	Z10	X11	Y11	Z11	X12	Y12	Z12	X13	Y13	Z13	X14	Y14	Z14	X15	Y15	Z15	X16	Y16	Z16	X17	Y17	Z17	X18	Y18	Z18	X19	Y19	Z19	X20	Y20	Z20	X21	Y21	Z21	X22	Y22	Z22	X23	Y23	Z23	X24	Y24	Z24	X25	Y25	Z25
1	0.00000000	-2845.176270	1297.765747	220.189285	-2843.971191	1306.516479	-116.901680	-2925.982422	1368.262451	60.176888	-2784.707764	1262.659180	47.504700	-2973.747314	991.382446	300.429749	-2894.735352	987.177063	-224.317459	-2948.567627	738.757935	292.148773	-2775.159302	770.892609	-247.974335	-2835.133301	889.926758	180.232086	-2855.668213	906.341003	-123.800774	-3049.602295	918.223389	47.915142	-3022.300781	1029.931274	48.701656	NaN	NaN	NaN	-2848.104492	563.179688	239.935043	-2789.710693	429.660431	186.858749	-2864.594727	301.127502	215.406769	-2963.620850	91.669312	125.541229	-3007.550537	97.698395	57.591255	-2856.477295	40.306973	115.793022	-2913.046875	594.311707	-159.838791	-2929.420166	424.293213	-83.118790	-2959.129395	247.089630	-149.483963	-3005.819336	44.403988	-65.532562	-3070.276367	25.434042	-18.018633	-2889.337402	28.154701	-25.809669
2	0.01000000	-2834.521973	1297.182495	221.004532	-2830.745850	1305.607544	-116.114311	-2913.939941	1367.516846	60.085041	-2772.695557	1261.758179	48.663952	-2963.883545	990.770325	300.003113	-2875.754639	986.276611	-224.363998	-2938.846436	738.144073	291.801163	-2753.825073	772.458374	-246.651558	-2822.950439	890.001770	180.269363	-2845.567139	905.334351	-123.597298	-3037.615967	917.421448	48.536194	-3010.347900	1029.283813	48.716370	NaN	NaN	NaN	-2830.989990	563.935730	239.647217	-2769.094971	431.408112	187.089203	-2837.700195	299.240875	216.471954	-2921.190674	82.314919	128.084595	-2965.181152	84.708702	59.889572	-2809.768555	38.668266	119.557503	-2904.444580	593.696655	-159.373199	-2925.714844	424.149292	-82.741974	-2957.327148	247.116867	-149.222900	-3005.618652	44.590015	-65.503990	-3070.262939	25.916069	-18.088699	-2889.250488	28.091888	-25.729431
3	0.02000000	-2823.797363	1296.331177	221.825699	-2817.504883	1304.473999	-115.227936	-2901.874512	1366.553589	60.067863	-2760.644775	1260.667725	49.835876	-2953.861328	989.942871	299.741302	-2856.767334	985.308411	-224.297379	-2928.802734	737.335999	291.640198	-2731.217529	774.182037	-245.065720	-2810.635010	889.802063	180.295532	-2834.729492	904.182800	-123.377510	-3025.542725	916.434265	49.300884	-2998.316895	1028.434692	48.930695	NaN	NaN	NaN	-2814.388672	564.364319	239.317062	-2749.516846	432.798676	187.248734	-2811.005859	297.126404	217.690720	-2877.975342	73.557503	130.950607	-2921.849121	72.400612	62.575123	-2763.056641	37.827404	123.406815	-2896.039307	593.032532	-158.945358	-2922.070312	424.057709	-82.370956	-2955.567139	247.212372	-148.981949	-3005.410400	44.837322	-65.462624	-3070.252197	26.501732	-18.141893	-2889.201172	28.050865	-25.677702
4	0.03000000	-2812.966064	1295.235229	222.652161	-2804.239014	1303.135254	-114.236420	-2889.783447	1365.383179	60.139282	-2748.547607	1259.400391	51.013302	-2943.661865	988.911743	299.636597	-2837.817383	984.296204	-224.119873	-2918.430054	736.343689	291.636032	-2707.786743	776.023590	-243.243187	-2798.181885	889.305420	180.296921	-2823.356201	902.892151	-123.154449	-3013.371338	915.278137	50.214481	-2986.201660	1027.389282	49.345036	NaN	NaN	NaN	-2798.381836	564.399475	238.909912	-2730.928223	433.788757	187.332764	-2784.372803	294.802429	219.052017	-2834.236328	65.677101	134.088867	-2877.833740	61.120880	65.575203	-2716.622803	37.879414	127.293037	-2887.938477	592.360596	-158.559723	-2918.488525	424.038422	-81.999817	-2953.863770	247.398056	-148.749786	-3005.203613	45.179630	-65.386780	-3070.235840	27.225876	-18.136597	-2889.180176	28.026035	-25.643787
5	0.04000000	-2801.997559	1293.925903	223.489731	-2790.943848	1301.618042	-113.136742	-2877.664062	1364.022705	60.313763	-2736.399658	1257.973755	52.200359	-2933.271973	987.696167	299.687866	-2818.959229	983.261597	-223.834045	-2907.729614	735.181854	291.769043	-2683.949707	777.956757	-241.211281	-2785.584473	888.494202	180.264816	-2811.647217	901.472900	-122.932182	-3001.091309	913.966248	51.279903	-2973.999756	1026.154785	49.952965	NaN	NaN	NaN	-2783.046143	563.983215	238.394760	-2713.226318	434.360291	187.338135	-2757.699707	292.350983	220.526215	-2790.335205	58.921734	137.446045	-2833.534180	51.186237	68.832214	-2670.772217	38.862312	131.165054	-2880.228027	591.723206	-158.222336	-2914.928467	424.103607	-81.618378	-2952.198975	247.691788	-148.506439	-3005.004395	45.652210	-65.250290	-3070.201660	28.131245	-18.026297	-2889.169189	28.008652	-25.611509
6	0.05000000	-2790.867188	1292.438843	224.349091	-2777.621582	1299.955688	-111.930092	-2865.511230	1362.495483	60.605301	-2724.197021	1256.411255	53.409100	-2922.681885	986.319580	299.899017	-2800.253418	982.222046	-223.442307	-2896.708740	733.867126	292.029343	-2660.054077	779.974213	-238.992271	-2772.835205	887.359741	180.201553	-2799.759277	899.942139	-122.707436	-2988.691895	912.509583	52.496170	-2961.710693	1024.741577	50.744019	NaN	NaN	NaN	-2768.436768	563.072998	237.762695	-2696.265137	434.527863	187.263901	-2730.988037	289.912567	222.062500	-2746.734619	53.480598	140.959335	-2789.448242	42.837379	72.281425	-2625.866699	40.765003	134.983704	-2872.939453	591.157959	-157.935852	-2911.307129	424.257660	-81.213104	-2950.525635	248.108307	-148.227112	-3004.811279	46.287960	-65.027039	-3070.134277	29.261906	-17.767076	-2889.151123	27.994743	-25.567915
7	0.06000000	-2779.557129	1290.810425	225.243347	-2764.283936	1298.187012	-110.622871	-2853.320557	1360.830078	61.026321	-2711.934570	1254.740967	54.654942	-2911.879395	984.804810	300.275574	-2781.762451	981.189148	-222.946442	-2885.380737	732.417328	292.415787	-2636.369751	782.081299	-236.608162	-2759.927490	885.905396	180.121918	-2787.782227	898.323853	-122.471542	-2976.160645	910.917419	53.857761	-2949.331055	1023.163330	51.705482	NaN	NaN	NaN	-2754.566895	561.645325	237.038589	-2679.872070	434.341156	187.115494	-2704.389893	287.659668	223.591980	-2703.983398	49.458408	144.547958	-2746.143311	36.199539	75.830559	-2582.333252	43.525517	138.722794	-2866.028076	590.691162	-157.694168	-2907.513428	424.498932	-80.769585	-2948.779297	248.661743	-147.889023	-3004.615479	47.114563	-64.696815	-3070.015381	30.656088	-17.326778	-2889.111084	27.987347	-25.508640
8	0.07000000	-2768.056641	1289.075562	226.187500	-2750.950684	1296.353760	-109.224930	-2841.088135	1359.058716	61.587151	-2699.606934	1252.994629	55.951393	-2900.847900	983.171875	300.822754	-2763.546143	980.169678	-222.347092	-2873.765381	730.850006	292.935226	-2613.097412	784.283386	-234.085785	-2746.855225	884.148987	180.050476	-2775.748535	896.647644	-122.211998	-2963.483398	909.198364	55.353821	-2936.853027	1021.436951	52.822067	NaN	NaN	NaN	-2741.392822	559.696960	236.278961	-2663.868408	433.877533	186.910416	-2678.211670	285.751221	225.036499	-2662.685303	46.853859	148.108826	-2704.229004	31.260635	79.357018	-2540.653564	47.016766	142.356964	-2859.372314	590.334229	-157.480865	-2903.425537	424.820770	-80.276047	-2946.892822	249.367386	-147.478928	-3004.401123	48.153629	-64.252388	-3069.824951	32.342896	-16.693586	-2889.036133	27.993404	-25.437990
9	0.08000000	-2756.360596	1287.266724	227.198395	-2737.644287	1294.496582	-107.743828	-2828.812012	1357.215454	62.296452	-2687.209961	1251.205933	57.303993	-2889.565918	981.438721	301.544739	-2745.659668	979.169189	-221.643112	-2861.882080	729.180603	293.599167	-2590.380981	786.575623	-231.456253	-2733.611328	882.124756	180.018295	-2763.648682	894.945679	-121.913498	-2950.643799	907.362793	56.967480	-2924.261963	1019.582092	54.074738	NaN	NaN	NaN	-2728.813965	557.243652	235.551880	-2648.084961	433.225281	186.679291	-2652.860840	284.280884	226.320450	-2623.458008	45.545403	151.517975	-2664.322998	27.866329	82.718193	-2501.330078	51.036560	145.848038	-2852.795898	590.082825	-157.271835	-2898.926758	425.212036	-79.727074	-2944.805420	250.241348	-146.997940	-3004.146240	49.420612	-63.704441	-3069.543701	34.343838	-15.882202	-2888.913330	28.019945	-25.364805
10	0.09000000	-2744.468262	1285.414307	228.293686	-2724.381836	1292.651123	-106.180687	-2816.492676	1355.334839	63.162064	-2674.739746	1249.411133	58.707321	-2878.008545	979.623779	302.445099	-2728.150635	978.195312	-220.831070	-2849.743164	727.423523	294.420425	-2568.323120	788.940857	-228.752777	-2720.186523	879.886963	180.064255	-2751.444580	893.251099	-121.559418	-2937.622314	905.425903	58.675831	-2911.535645	1017.621216	55.440418	NaN	NaN	NaN	-2716.691162	554.321655	234.902817	-2632.376465	432.462555	186.458817	-2628.757568	283.238800	227.380157	-2586.884033	45.292797	154.636627	-2627.007080	25.744297	85.763672	-2464.843018	55.311607	149.135345	-2846.097168	589.918091	-157.040039	-2893.915527	425.656555	-79.125847	-2942.460449	251.297623	-146.461945	-3003.821777	50.926163	-63.081848	-3069.154785	36.676685	-14.934902	-2888.733154	28.070812	-25.296476
11	0.10000000	-2732.384766	1283.547485	229.490326	-2711.176758	1290.850342	-104.532112	-2804.133545	1353.450317	64.191963	-2662.193848	1247.648560	60.150665	-2866.150635	977.747375	303.526917	-2711.058838	977.259521	-219.905685	-2837.348511	725.594940	295.411880	-2547.002319	791.351349	-226.011879	-2706.570801	877.515259	180.239105	-2739.080566	891.596313	-121.133766	-2924.396973	903.410217	60.450302	-2898.645996	1015.580566	56.893444	NaN	NaN	NaN	-2704.862061	551.001892	234.329254	-2616.640381	431.641876	186.279755	-2606.237061	282.507660	228.167664	-2553.457520	45.766132	157.323792	-2592.789795	24.566946	88.348351	-2431.603027	59.504311	152.130386	-2839.080322	589.810303	-156.760941	-2888.310547	426.134521	-78.484306	-2939.802002	252.544098	-145.898178	-3003.393311	52.679630	-62.427460	-3068.642090	39.359699	-13.915812	-2888.486816	28.145424	-25.235270
12	0.11000000	-2720.119873	1281.695557	230.803421	-2698.040771	1289.127808	-102.795212	-2791.740723	1351.594116	65.395569	-2649.571045	1245.958618	61.630783	-2853.970459	975.832581	304.792603	-2694.416260	976.376465	-218.861084	-2824.687134	723.714417	296.584763	-2526.484131	793.770142	-223.274826	-2692.754395	875.112244	180.601852	-2726.493652	890.010254	-120.622894	-2910.946289	901.347534	62.257420	-2885.562012	1013.491882	58.407486	NaN	NaN	NaN	-2693.138428	547.418213	233.792160	-2600.836670	430.786102	186.157349	-2585.490234	281.901978	228.652512	-2523.542480	46.599663	159.455795	-2562.083740	24.025055	90.350563	-2401.912109	63.221088	154.717682	-2831.575439	589.724915	-156.417755	-2882.049316	426.626465	-77.822151	-2936.770020	253.981308	-145.341217	-3002.823486	54.692467	-61.791569	-3067.988770	42.415974	-12.901134	-2888.168213	28.240294	-25.178404
13	0.12000000	-2707.687256	1279.888306	232.245895	-2684.984863	1287.518433	-100.971039	-2779.320801	1349.798462	66.784203	-2636.871826	1244.385132	63.160797	-2841.453125	973.905701	306.242706	-2678.254395	975.561890	-217.692719	-2811.739502	721.804932	297.943420	-2506.825806	796.152283	-220.584747	-2678.730713	872.790710	181.203156	-2713.620850	888.516418	-120.015846	-2897.254639	899.280579	64.061432	-2872.259033	1011.395386	59.956451	NaN	NaN	NaN	-2681.284424	543.790955	233.266632	-2585.007080	429.894867	186.090591	-2566.555176	281.235870	228.825897	-2497.360352	47.454338	160.949036	-2535.199707	23.875494	91.697075	-2375.946045	66.045868	156.766098	-2823.449707	589.630310	-156.004379	-2875.085449	427.116913	-77.164322	-2933.297607	255.603912	-144.828720	-3002.070557	56.980515	-61.225819	-3067.172119	45.877453	-11.969401	-2887.775146	28.350565	-25.120138
